<?xml version="1.0" encoding="UTF-8" standalone="no"?>
<svg
   version="1.1"
   id="Layer_1"
   x="0px"
   y="0px"
   width="100%"
   viewBox="0 0 1600 1600"
   enable-background="new 0 0 1600 1600"
   xml:space="preserve"
   sodipodi:docname="purepng.com-pokeballpokeballdevicepokemon-ballpokemon-capture-ball-17015278258617bdog-2754376087(1).svg"
   inkscape:version="1.3.2 (091e20ef0f, 2023-11-25)"
   xmlns:inkscape="http://www.inkscape.org/namespaces/inkscape"
   xmlns:sodipodi="http://sodipodi.sourceforge.net/DTD/sodipodi-0.dtd"
   xmlns="http://www.w3.org/2000/svg"
   xmlns:svg="http://www.w3.org/2000/svg"><defs
   id="defs9" /><sodipodi:namedview
   id="namedview9"
   pagecolor="#ffffff"
   bordercolor="#000000"
   borderopacity="0.25"
   inkscape:showpageshadow="2"
   inkscape:pageopacity="0.0"
   inkscape:pagecheckerboard="0"
   inkscape:deskcolor="#d1d1d1"
   inkscape:zoom="0.32375"
   inkscape:cx="798.4556"
   inkscape:cy="800"
   inkscape:window-width="1280"
   inkscape:window-height="764"
   inkscape:window-x="0"
   inkscape:window-y="36"
   inkscape:window-maximized="1"
   inkscape:current-layer="Layer_1" />
<path
   fill="#000000"
   opacity="1.000000"
   stroke="none"
   d=" M942.000000,1601.000000   C628.000122,1601.000000 314.500183,1601.000000 1.000210,1601.000000   C1.000140,1067.666870 1.000140,534.333862 1.000070,1.000568   C534.332947,1.000379 1067.665894,1.000379 1600.999023,1.000189   C1600.999390,534.332764 1600.999390,1067.665527 1600.999756,1600.999146   C1381.500000,1601.000000 1162.000000,1601.000000 942.000000,1601.000000  M1379.165283,1060.752075   C1387.131836,1040.238159 1395.700073,1019.933777 1402.932739,999.164307   C1415.859131,962.045227 1424.738159,923.882019 1428.974731,884.769592   C1431.432495,862.079407 1433.481079,839.321411 1434.803711,816.541077   C1435.523315,804.143982 1434.722778,791.612122 1433.930664,779.184204   C1432.573486,757.888000 1431.477295,736.524902 1428.789429,715.378357   C1426.272949,695.580750 1422.365234,675.911987 1418.121826,656.392700   C1411.003784,623.651428 1400.382812,591.949219 1387.860107,560.883423   C1377.492432,535.163635 1365.411011,510.239105 1351.520996,486.276184   C1336.241943,459.916687 1319.814697,434.228210 1300.309448,410.726746   C1286.461670,394.042023 1272.800781,377.094086 1257.692871,361.592682   C1241.277588,344.750031 1223.728760,328.925323 1205.839233,313.633575   C1191.295288,301.201477 1175.913208,289.644775 1160.204834,278.701813   C1127.626953,256.007141 1093.058228,236.763229 1056.652954,220.785858   C1026.247803,207.441833 995.030029,196.515518 962.959534,188.045227   C931.736084,179.798660 900.102295,173.635422 867.869995,170.967392   C850.227478,169.507034 832.580688,167.683243 814.902893,167.181168   C797.638550,166.690857 780.326538,167.501801 763.046875,168.082062   C754.457031,168.370514 745.858887,169.145462 737.324585,170.190842   C723.232971,171.917007 709.078552,173.460266 695.152527,176.132751   C674.218262,180.150177 653.276978,184.384735 632.669800,189.789505   C606.714600,196.596893 581.126831,204.924393 556.694275,216.104401   C532.909485,226.988052 509.152527,238.108551 486.254913,250.708893   C459.566620,265.395203 434.139160,282.295776 410.588593,301.753387   C394.905426,314.710907 378.951019,327.453491 364.320007,341.540649   C348.322327,356.943695 333.022888,373.204285 318.682556,390.159668   C303.859833,407.685394 289.875214,426.020508 276.735809,444.847290   C253.432419,478.237518 234.074402,513.904480 218.168091,551.446228   C205.934387,580.319946 195.706009,609.840027 187.806412,640.182922   C180.506058,668.224060 174.517578,696.520630 171.972961,725.420288   C170.028275,747.506531 168.187332,769.620911 167.171494,791.762756   C166.571487,804.840942 167.515244,818.002991 168.046906,831.115906   C168.510132,842.541138 168.746994,854.029663 170.191315,865.348938   C172.677719,884.835083 174.953140,904.453186 179.266968,923.576050   C185.447922,950.975830 192.744232,978.171204 200.806427,1005.081665   C205.591156,1021.052246 212.089264,1036.614868 219.021759,1051.811279   C228.854172,1073.364258 238.936050,1094.892090 250.485397,1115.550659   C264.605591,1140.807617 280.457367,1165.106812 298.865601,1187.546875   C312.711395,1204.425049 326.289734,1221.617188 341.311310,1237.410034   C356.619324,1253.503906 372.917847,1268.806641 389.933136,1283.084839   C408.529266,1298.689697 427.967194,1313.407715 447.892303,1327.285889   C480.326202,1349.876953 515.152222,1368.319702 551.523804,1383.862061   C581.113586,1396.506348 611.460571,1406.903931 642.602661,1414.888062   C672.574768,1422.572388 702.888062,1428.738281 733.808105,1430.948242   C758.764771,1432.732056 783.776733,1433.779175 808.774780,1434.918335   C813.868896,1435.150391 819.011292,1434.343262 824.130493,1434.000854   C838.831909,1433.017822 853.596375,1432.580688 868.218140,1430.902100   C887.249634,1428.717285 906.286377,1426.177734 925.106995,1422.649902   C953.745911,1417.281860 981.806824,1409.468506 1009.309814,1399.790894   C1039.493286,1389.170166 1068.825562,1376.627563 1097.096680,1361.541504   C1123.149658,1347.638916 1148.207397,1332.204224 1172.131104,1314.928711   C1198.489746,1295.895142 1223.431274,1275.127075 1246.315918,1252.028198   C1258.682251,1239.546265 1270.515869,1226.505493 1282.090698,1213.280029   C1291.771362,1202.218994 1301.228516,1190.888428 1309.875854,1179.015381   C1320.573608,1164.327148 1330.685791,1149.179077 1340.415161,1133.826660   C1355.071411,1110.699951 1367.975830,1086.585571 1379.165283,1060.752075  z"
   id="path1"
   style="fill:#000000;fill-opacity:0;opacity:0" />
<path
   fill="#37474F"
   opacity="1.000000"
   stroke="none"
   d=" M1379.079224,1061.121826   C1367.975830,1086.585571 1355.071411,1110.699951 1340.415161,1133.826660   C1330.685791,1149.179077 1320.573608,1164.327148 1309.875854,1179.015381   C1301.228516,1190.888428 1291.771362,1202.218994 1282.090698,1213.280029   C1270.515869,1226.505493 1258.682251,1239.546265 1246.315918,1252.028198   C1223.431274,1275.127075 1198.489746,1295.895142 1172.131104,1314.928711   C1148.207397,1332.204224 1123.149658,1347.638916 1097.096680,1361.541504   C1068.825562,1376.627563 1039.493286,1389.170166 1009.309814,1399.790894   C981.806824,1409.468506 953.745911,1417.281860 925.106995,1422.649902   C906.286377,1426.177734 887.249634,1428.717285 868.218140,1430.902100   C853.596375,1432.580688 838.831909,1433.017822 824.130493,1434.000854   C819.011292,1434.343262 813.868896,1435.150391 808.774780,1434.918335   C783.776733,1433.779175 758.764771,1432.732056 733.808105,1430.948242   C702.888062,1428.738281 672.574768,1422.572388 642.602661,1414.888062   C611.460571,1406.903931 581.113586,1396.506348 551.523804,1383.862061   C515.152222,1368.319702 480.326202,1349.876953 447.892303,1327.285889   C427.967194,1313.407715 408.529266,1298.689697 389.933136,1283.084839   C372.917847,1268.806641 356.619324,1253.503906 341.311310,1237.410034   C326.289734,1221.617188 312.711395,1204.425049 298.865601,1187.546875   C280.457367,1165.106812 264.605591,1140.807617 250.485397,1115.550659   C238.936050,1094.892090 228.854172,1073.364258 219.021759,1051.811279   C212.089264,1036.614868 205.591156,1021.052246 200.806427,1005.081665   C192.744232,978.171204 185.447922,950.975830 179.266968,923.576050   C174.953140,904.453186 172.677719,884.835083 170.191315,865.348938   C168.746994,854.029663 168.510132,842.541138 168.046906,831.115906   C167.515244,818.002991 166.571487,804.840942 167.171494,791.762756   C168.187332,769.620911 170.028275,747.506531 171.972961,725.420288   C174.517578,696.520630 180.506058,668.224060 187.806412,640.182922   C195.706009,609.840027 205.934387,580.319946 218.168091,551.446228   C234.074402,513.904480 253.432419,478.237518 276.735809,444.847290   C289.875214,426.020508 303.859833,407.685394 318.682556,390.159668   C333.022888,373.204285 348.322327,356.943695 364.320007,341.540649   C378.951019,327.453491 394.905426,314.710907 410.588593,301.753387   C434.139160,282.295776 459.566620,265.395203 486.254913,250.708893   C509.152527,238.108551 532.909485,226.988052 556.694275,216.104401   C581.126831,204.924393 606.714600,196.596893 632.669800,189.789505   C653.276978,184.384735 674.218262,180.150177 695.152527,176.132751   C709.078552,173.460266 723.232971,171.917007 737.324585,170.190842   C745.858887,169.145462 754.457031,168.370514 763.046875,168.082062   C780.326538,167.501801 797.638550,166.690857 814.902893,167.181168   C832.580688,167.683243 850.227478,169.507034 867.869995,170.967392   C900.102295,173.635422 931.736084,179.798660 962.959534,188.045227   C995.030029,196.515518 1026.247803,207.441833 1056.652954,220.785858   C1093.058228,236.763229 1127.626953,256.007141 1160.204834,278.701813   C1175.913208,289.644775 1191.295288,301.201477 1205.839233,313.633575   C1223.728760,328.925323 1241.277588,344.750031 1257.692871,361.592682   C1272.800781,377.094086 1286.461670,394.042023 1300.309448,410.726746   C1319.814697,434.228210 1336.241943,459.916687 1351.520996,486.276184   C1365.411011,510.239105 1377.492432,535.163635 1387.860107,560.883423   C1400.382812,591.949219 1411.003784,623.651428 1418.121826,656.392700   C1422.365234,675.911987 1426.272949,695.580750 1428.789429,715.378357   C1431.477295,736.524902 1432.573486,757.888000 1433.930664,779.184204   C1434.722778,791.612122 1435.523315,804.143982 1434.803711,816.541077   C1433.481079,839.321411 1431.432495,862.079407 1428.974731,884.769592   C1424.738159,923.882019 1415.859131,962.045227 1402.932739,999.164307   C1395.700073,1019.933777 1387.131836,1040.238159 1379.079224,1061.121826  M1231.975220,834.281067   C1154.175171,834.281067 1076.375000,834.281067 998.275146,834.281067   C992.169617,868.410645 978.709595,898.984131 957.115295,925.845825   C935.391174,952.869202 908.498108,973.006714 876.405640,986.155579   C844.644470,999.168762 811.566162,1004.038147 777.597351,999.817200   C736.743530,994.740845 700.388794,978.687988 669.326782,951.385254   C633.824341,920.179321 612.393433,880.953979 603.582214,834.551453   C480.895233,834.551453 358.330872,834.551453 235.156891,834.551453   C236.139694,845.267395 236.700562,855.691895 238.131760,865.995422   C240.375809,882.150635 242.653854,898.336060 245.883469,914.313477   C262.214508,995.105347 295.005341,1068.706787 343.710358,1135.159058   C392.263947,1201.404663 452.358887,1254.758911 523.941833,1295.066284   C580.599365,1326.969238 640.922302,1348.681763 705.128113,1359.307495   C720.354431,1361.827271 735.619873,1364.346069 750.967407,1365.828247   C764.896301,1367.173584 778.958801,1367.196655 792.967712,1367.629761   C802.102112,1367.912109 811.265930,1368.314209 820.380676,1367.890869   C832.055298,1367.348511 843.733459,1366.359009 855.338257,1364.964722   C870.559753,1363.135620 885.711182,1360.723755 901.681274,1358.660645   C943.049011,1351.076172 983.175964,1339.312500 1021.860962,1322.769409   C1100.883179,1288.976685 1168.969482,1239.936401 1225.805054,1175.489502   C1285.976685,1107.259766 1327.689209,1029.082397 1349.953857,940.821228   C1355.095703,920.437317 1358.638306,899.609314 1362.048340,878.843018   C1364.430542,864.336426 1365.333496,849.586975 1366.971924,834.246826   C1364.356934,834.246826 1362.580200,834.246765 1360.803345,834.246765   C1339.813965,834.246704 1318.824707,834.221985 1297.835327,834.253601   C1276.185547,834.286194 1254.535645,834.373657 1231.975220,834.281067  M901.208313,243.308762   C900.804077,243.264191 900.399841,243.219604 899.210388,242.940979   C898.237549,242.712616 897.274109,242.428116 896.290527,242.263962   C849.096741,234.386948 801.636353,232.296280 753.962646,236.239899   C715.198547,239.446518 677.052429,246.246780 639.843933,257.735596   C494.631989,302.572601 383.970154,391.001648 307.860901,522.359314   C269.899323,587.877625 247.368423,658.758667 238.277756,733.900146   C236.944153,744.923401 236.222168,756.020691 235.183960,767.449341   C358.441284,767.449341 480.992554,767.449341 603.495056,767.449341   C619.222900,672.824036 701.359314,603.860229 793.844849,601.146179   C839.215271,599.814697 880.793762,611.840088 917.629700,638.595337   C961.707336,670.610352 988.228210,713.906677 998.406494,767.760254   C1000.554443,767.760254 1002.525024,767.760315 1004.495605,767.760315   C1078.651367,767.760315 1152.807007,767.762085 1226.962769,767.750671   C1228.957153,767.750366 1230.951538,767.607544 1233.873657,767.706970   C1277.960815,767.706970 1322.047974,767.706970 1366.433594,767.706970   C1366.433594,766.284241 1366.476196,765.478943 1366.427612,764.679199   C1363.401733,714.875610 1353.847778,666.326172 1337.723145,619.138367   C1278.529419,445.910187 1140.730591,312.373016 965.465942,258.858002   C944.686829,252.513351 923.141846,248.676758 901.763123,243.574249   C901.763123,243.574249 901.642456,243.752472 901.208313,243.308762  M701.688049,889.799866   C726.689453,917.708191 758.587036,931.538330 795.312622,934.798828   C803.204346,935.499451 811.375244,934.063904 819.324585,932.949829   C893.252319,922.588867 947.280029,852.912598 931.510498,774.254517   C917.450562,704.123840 849.830750,655.629883 774.175049,670.394775   C712.199951,682.489807 662.479797,741.108948 668.073059,811.204468   C670.440125,840.869629 681.606873,866.883362 701.688049,889.799866  z"
   id="path2" />
<path
   fill="#FF3D00"
   opacity="1.000000"
   stroke="none"
   d=" M1232.945923,767.531189   C1230.951538,767.607544 1228.957153,767.750366 1226.962769,767.750671   C1152.807007,767.762085 1078.651367,767.760315 1004.495605,767.760315   C1002.525024,767.760315 1000.554443,767.760254 998.406494,767.760254   C988.228210,713.906677 961.707336,670.610352 917.629700,638.595337   C880.793762,611.840088 839.215271,599.814697 793.844849,601.146179   C701.359314,603.860229 619.222900,672.824036 603.495056,767.449341   C480.992554,767.449341 358.441284,767.449341 235.183960,767.449341   C236.222168,756.020691 236.944153,744.923401 238.277756,733.900146   C247.368423,658.758667 269.899323,587.877625 307.860901,522.359314   C383.970154,391.001648 494.631989,302.572601 639.843933,257.735596   C677.052429,246.246780 715.198547,239.446518 753.962646,236.239899   C801.636353,232.296280 849.096741,234.386948 896.290527,242.263962   C897.274109,242.428116 898.237549,242.712616 899.847900,243.225540   C900.871155,243.590897 901.256775,243.671692 901.642456,243.752472   C901.642456,243.752472 901.763123,243.574249 902.015930,243.956528   C910.252136,249.095947 918.242493,253.841553 926.217834,258.612152   C967.075806,283.052155 1004.809021,311.619812 1039.071533,344.678986   C1049.607666,354.845062 1059.976440,365.260101 1069.597778,376.280579   C1083.799316,392.547455 1098.134033,408.825317 1110.809692,426.263153   C1124.977173,445.753113 1137.878540,466.226105 1150.391235,486.841614   C1170.065796,519.256592 1185.245483,553.873657 1197.984863,589.546082   C1211.173462,626.476624 1221.193359,664.280579 1226.615479,703.125305   C1229.595093,724.472595 1230.890869,746.054871 1232.945923,767.531189  z"
   id="path3" />
<path
   fill="#FFFFFF"
   opacity="1.000000"
   stroke="none"
   d=" M900.892822,1358.562500   C885.711182,1360.723755 870.559753,1363.135620 855.338257,1364.964722   C843.733459,1366.359009 832.055298,1367.348511 820.380676,1367.890869   C811.265930,1368.314209 802.102112,1367.912109 792.967712,1367.629761   C778.958801,1367.196655 764.896301,1367.173584 750.967407,1365.828247   C735.619873,1364.346069 720.354431,1361.827271 705.128113,1359.307495   C640.922302,1348.681763 580.599365,1326.969238 523.941833,1295.066284   C452.358887,1254.758911 392.263947,1201.404663 343.710358,1135.159058   C295.005341,1068.706787 262.214508,995.105347 245.883469,914.313477   C242.653854,898.336060 240.375809,882.150635 238.131760,865.995422   C236.700562,855.691895 236.139694,845.267395 235.156891,834.551453   C358.330872,834.551453 480.895233,834.551453 603.582214,834.551453   C612.393433,880.953979 633.824341,920.179321 669.326782,951.385254   C700.388794,978.687988 736.743530,994.740845 777.597351,999.817200   C811.566162,1004.038147 844.644470,999.168762 876.405640,986.155579   C908.498108,973.006714 935.391174,952.869202 957.115295,925.845825   C978.709595,898.984131 992.169617,868.410645 998.275146,834.281067   C1076.375000,834.281067 1154.175171,834.281067 1232.457520,834.797119   C1232.242188,846.592651 1232.008545,857.923950 1230.757812,869.141785   C1227.307129,900.091736 1221.779907,930.682922 1213.864136,960.830261   C1198.533325,1019.217957 1175.392334,1074.307739 1144.282104,1126.039307   C1121.287598,1164.275635 1094.449829,1199.649170 1064.033081,1232.250000   C1041.625366,1256.266602 1017.379089,1278.370972 991.478271,1298.583008   C965.970093,1318.488525 939.119690,1336.423584 910.837952,1352.188843   C907.405212,1354.102417 904.202209,1356.427856 900.892822,1358.562500  z"
   id="path4" />
<path
   fill="#DD2C00"
   opacity="1.000000"
   stroke="none"
   d=" M1233.409790,767.619080   C1230.890869,746.054871 1229.595093,724.472595 1226.615479,703.125305   C1221.193359,664.280579 1211.173462,626.476624 1197.984863,589.546082   C1185.245483,553.873657 1170.065796,519.256592 1150.391235,486.841614   C1137.878540,466.226105 1124.977173,445.753113 1110.809692,426.263153   C1098.134033,408.825317 1083.799316,392.547455 1069.597778,376.280579   C1059.976440,365.260101 1049.607666,354.845062 1039.071533,344.678986   C1004.809021,311.619812 967.075806,283.052155 926.217834,258.612152   C918.242493,253.841553 910.252136,249.095947 902.110352,244.008179   C923.141846,248.676758 944.686829,252.513351 965.465942,258.858002   C1140.730591,312.373016 1278.529419,445.910187 1337.723145,619.138367   C1353.847778,666.326172 1363.401733,714.875610 1366.427612,764.679199   C1366.476196,765.478943 1366.433594,766.284241 1366.433594,767.706970   C1322.047974,767.706970 1277.960815,767.706970 1233.409790,767.619080  z"
   id="path5" />
<path
   fill="#CFD8DC"
   opacity="1.000000"
   stroke="none"
   d=" M901.287048,1358.611572   C904.202209,1356.427856 907.405212,1354.102417 910.837952,1352.188843   C939.119690,1336.423584 965.970093,1318.488525 991.478271,1298.583008   C1017.379089,1278.370972 1041.625366,1256.266602 1064.033081,1232.250000   C1094.449829,1199.649170 1121.287598,1164.275635 1144.282104,1126.039307   C1175.392334,1074.307739 1198.533325,1019.217957 1213.864136,960.830261   C1221.779907,930.682922 1227.307129,900.091736 1230.757812,869.141785   C1232.008545,857.923950 1232.242188,846.592651 1232.912842,834.875122   C1254.535645,834.373657 1276.185547,834.286194 1297.835327,834.253601   C1318.824707,834.221985 1339.813965,834.246704 1360.803345,834.246765   C1362.580200,834.246765 1364.356934,834.246826 1366.971924,834.246826   C1365.333496,849.586975 1364.430542,864.336426 1362.048340,878.843018   C1358.638306,899.609314 1355.095703,920.437317 1349.953857,940.821228   C1327.689209,1029.082397 1285.976685,1107.259766 1225.805054,1175.489502   C1168.969482,1239.936401 1100.883179,1288.976685 1021.860962,1322.769409   C983.175964,1339.312500 943.049011,1351.076172 901.287048,1358.611572  z"
   id="path6" />
<path
   fill="#FEFEFE"
   opacity="1.000000"
   stroke="none"
   d=" M701.451294,889.535767   C681.606873,866.883362 670.440125,840.869629 668.073059,811.204468   C662.479797,741.108948 712.199951,682.489807 774.175049,670.394775   C849.830750,655.629883 917.450562,704.123840 931.510498,774.254517   C947.280029,852.912598 893.252319,922.588867 819.324585,932.949829   C811.375244,934.063904 803.204346,935.499451 795.312622,934.798828   C758.587036,931.538330 726.689453,917.708191 701.451294,889.535767  M848.420105,754.083862   C832.280334,737.906982 812.410461,732.075256 790.371948,735.297302   C749.497986,741.273071 726.506409,783.443604 736.491699,818.519775   C744.945312,848.215454 776.214111,872.358093 810.390869,867.068237   C839.183228,862.611694 863.321472,840.263489 866.936035,809.578857   C869.395325,788.701477 863.696777,770.040955 848.420105,754.083862  z"
   id="path7" />
<path
   fill="#DD2C00"
   opacity="1.000000"
   stroke="none"
   d=" M901.425415,243.530609   C901.256775,243.671692 900.871155,243.590897 900.240540,243.342560   C900.399841,243.219604 900.804077,243.264191 901.425415,243.530609  z"
   id="path8" />
<path
   fill="#38484F"
   opacity="1.000000"
   stroke="none"
   d=" M848.668945,754.333984   C863.696777,770.040955 869.395325,788.701477 866.936035,809.578857   C863.321472,840.263489 839.183228,862.611694 810.390869,867.068237   C776.214111,872.358093 744.945312,848.215454 736.491699,818.519775   C726.506409,783.443604 749.497986,741.273071 790.371948,735.297302   C812.410461,732.075256 832.280334,737.906982 848.668945,754.333984  z"
   id="path9" />
</svg>
